<mxfile host="app.diagrams.net" modified="2020-07-29T10:29:55.197Z" agent="5.0 (Macintosh)" etag="7g-3UPTAOxGYqAEaLPFY" version="13.5.5" type="github">
  <diagram id="hZmp4kSh5wLAMJYNjyrb" name="Page-1">
    <mxGraphModel dx="1144" dy="683" grid="1" gridSize="10" guides="1" tooltips="1" connect="1" arrows="1" fold="1" page="1" pageScale="1" pageWidth="827" pageHeight="1169" math="0" shadow="0">
      <root>
        <mxCell id="0" />
        <mxCell id="1" parent="0" />
        <mxCell id="5fBYy0nUU0CtIiUVLNiD-9" value="Client" style="rounded=0;whiteSpace=wrap;html=1;" vertex="1" parent="1">
          <mxGeometry x="100" y="140" width="60" height="330" as="geometry" />
        </mxCell>
        <mxCell id="5fBYy0nUU0CtIiUVLNiD-10" value="System" style="rounded=0;whiteSpace=wrap;html=1;" vertex="1" parent="1">
          <mxGeometry x="410" y="130" width="60" height="350" as="geometry" />
        </mxCell>
        <mxCell id="5fBYy0nUU0CtIiUVLNiD-17" style="edgeStyle=orthogonalEdgeStyle;rounded=0;orthogonalLoop=1;jettySize=auto;html=1;entryX=0;entryY=0.138;entryDx=0;entryDy=0;entryPerimeter=0;exitX=1.067;exitY=0.097;exitDx=0;exitDy=0;exitPerimeter=0;" edge="1" parent="1" source="5fBYy0nUU0CtIiUVLNiD-9" target="5fBYy0nUU0CtIiUVLNiD-10">
          <mxGeometry relative="1" as="geometry" />
        </mxCell>
        <mxCell id="5fBYy0nUU0CtIiUVLNiD-20" style="edgeStyle=orthogonalEdgeStyle;rounded=0;orthogonalLoop=1;jettySize=auto;html=1;entryX=1.017;entryY=0.345;entryDx=0;entryDy=0;entryPerimeter=0;exitX=0;exitY=0.379;exitDx=0;exitDy=0;exitPerimeter=0;fillColor=#dae8fc;strokeColor=#6c8ebf;" edge="1" parent="1" source="5fBYy0nUU0CtIiUVLNiD-19" target="5fBYy0nUU0CtIiUVLNiD-9">
          <mxGeometry relative="1" as="geometry" />
        </mxCell>
        <mxCell id="5fBYy0nUU0CtIiUVLNiD-23" style="edgeStyle=orthogonalEdgeStyle;rounded=0;orthogonalLoop=1;jettySize=auto;html=1;entryX=-0.033;entryY=0.657;entryDx=0;entryDy=0;entryPerimeter=0;exitX=1;exitY=0.658;exitDx=0;exitDy=0;exitPerimeter=0;" edge="1" parent="1" source="5fBYy0nUU0CtIiUVLNiD-9" target="5fBYy0nUU0CtIiUVLNiD-10">
          <mxGeometry relative="1" as="geometry">
            <mxPoint x="170" y="360" as="sourcePoint" />
          </mxGeometry>
        </mxCell>
        <mxCell id="5fBYy0nUU0CtIiUVLNiD-22" value="&amp;nbsp;Achat voyage : destination" style="text;html=1;strokeColor=#6c8ebf;fillColor=#dae8fc;align=center;verticalAlign=middle;whiteSpace=wrap;rounded=0;" vertex="1" parent="1">
          <mxGeometry x="227" y="340" width="120" height="30" as="geometry" />
        </mxCell>
        <mxCell id="5fBYy0nUU0CtIiUVLNiD-19" value="Support electronique pour mobile :QRCODE, Cash Wallet prépayé " style="text;html=1;strokeColor=#82b366;fillColor=#d5e8d4;align=center;verticalAlign=middle;whiteSpace=wrap;rounded=0;" vertex="1" parent="1">
          <mxGeometry x="220" y="200" width="110" height="90" as="geometry" />
        </mxCell>
        <mxCell id="5fBYy0nUU0CtIiUVLNiD-25" style="edgeStyle=orthogonalEdgeStyle;rounded=0;orthogonalLoop=1;jettySize=auto;html=1;entryX=1.017;entryY=0.345;entryDx=0;entryDy=0;entryPerimeter=0;exitX=0;exitY=0.379;exitDx=0;exitDy=0;exitPerimeter=0;fillColor=#dae8fc;strokeColor=#6c8ebf;" edge="1" parent="1" source="5fBYy0nUU0CtIiUVLNiD-10" target="5fBYy0nUU0CtIiUVLNiD-19">
          <mxGeometry relative="1" as="geometry">
            <mxPoint x="410" y="262.65" as="sourcePoint" />
            <mxPoint x="161.01999999999998" y="253.85000000000002" as="targetPoint" />
          </mxGeometry>
        </mxCell>
        <mxCell id="5fBYy0nUU0CtIiUVLNiD-26" value="Demande d&#39;abonnement" style="text;html=1;strokeColor=#6c8ebf;fillColor=#dae8fc;align=center;verticalAlign=middle;whiteSpace=wrap;rounded=0;" vertex="1" parent="1">
          <mxGeometry x="230" y="130" width="80" height="30" as="geometry" />
        </mxCell>
        <mxCell id="5fBYy0nUU0CtIiUVLNiD-29" value="Confirmation " style="text;html=1;strokeColor=none;fillColor=none;align=center;verticalAlign=middle;whiteSpace=wrap;rounded=0;" vertex="1" parent="1">
          <mxGeometry x="230" y="420" width="100" height="20" as="geometry" />
        </mxCell>
      </root>
    </mxGraphModel>
  </diagram>
</mxfile>
